<svg id="svg" version="1.1" xmlns="http://www.w3.org/2000/svg" xmlns:xlink="http://www.w3.org/1999/xlink" width="400" height="248.64864864864865" viewBox="0, 0, 400,248.64864864864865"><g id="svgg"><path id="path0" d="M249.751 49.858 C 240.095 52.010,235.969 64.364,242.253 72.313 C 250.503 82.750,267.468 76.936,267.439 63.682 C 267.418 54.279,259.098 47.776,249.751 49.858 M70.141 52.820 C 70.077 52.880,68.682 53.058,67.040 53.217 C 56.462 54.236,50.251 59.913,47.831 70.771 C 47.414 72.646,47.388 75.848,47.388 126.244 L 47.388 179.726 60.759 179.791 C 68.113 179.826,74.154 179.826,74.185 179.791 C 74.216 179.755,74.300 170.323,74.372 158.831 L 74.502 137.935 83.802 137.870 C 90.459 137.823,93.197 137.885,93.441 138.087 C 93.723 138.322,93.781 141.774,93.781 158.472 C 93.781 170.932,93.873 178.817,94.024 179.213 L 94.266 179.851 107.282 179.851 C 117.074 179.851,120.372 179.777,120.597 179.552 C 120.985 179.164,121.029 79.756,120.644 74.698 C 119.670 61.938,113.256 54.691,101.617 53.199 C 99.479 52.925,70.403 52.575,70.141 52.820 M203.629 53.128 C 196.318 53.922,191.567 56.363,188.053 61.130 C 187.099 62.425,186.318 63.595,186.318 63.732 C 186.318 63.868,186.160 64.332,185.966 64.763 C 184.893 67.146,184.576 68.050,184.566 68.751 C 184.560 69.178,184.390 69.975,184.188 70.522 C 183.974 71.101,183.722 73.184,183.586 75.498 C 183.317 80.055,183.289 178.145,183.556 179.104 L 183.729 179.726 196.264 179.791 C 206.127 179.842,208.841 179.789,208.997 179.542 C 209.107 179.370,209.200 162.718,209.204 142.537 C 209.209 119.883,209.302 105.703,209.447 105.473 C 209.647 105.157,210.860 105.088,217.332 105.024 C 222.277 104.974,225.095 104.854,225.302 104.682 C 225.761 104.301,225.759 86.978,225.300 86.070 L 224.986 85.448 217.506 85.323 C 208.256 85.170,209.078 85.605,209.296 80.972 C 209.716 72.060,211.389 70.647,221.519 70.647 C 224.857 70.647,225.125 70.612,225.374 70.147 C 225.915 69.136,225.586 53.507,225.015 53.089 C 224.372 52.619,208.037 52.649,203.629 53.128 M140.307 55.208 C 140.132 55.535,140.050 75.302,140.050 117.289 C 140.050 159.275,140.132 179.042,140.307 179.370 C 140.625 179.964,165.034 180.140,165.622 179.552 C 166.057 179.118,166.057 55.460,165.622 55.025 C 165.034 54.437,140.625 54.613,140.307 55.208 M91.070 71.427 C 92.244 71.819,93.161 72.738,93.497 73.860 C 93.950 75.374,93.897 116.261,93.441 116.639 C 93.197 116.841,90.459 116.903,83.802 116.856 L 74.502 116.791 74.434 95.647 C 74.396 84.017,74.426 74.253,74.500 73.947 C 74.708 73.088,76.084 71.668,76.953 71.416 C 78.128 71.076,90.046 71.085,91.070 71.427 M303.607 84.074 C 298.328 84.828,295.782 85.831,292.471 88.458 C 288.762 91.403,286.833 94.830,285.275 101.244 L 284.701 103.607 284.701 132.711 L 284.701 161.816 285.276 164.179 C 287.844 174.747,292.270 179.144,302.488 181.275 C 305.750 181.956,333.112 181.941,336.443 181.257 C 341.866 180.143,347.889 177.107,348.717 175.072 C 348.764 174.956,349.219 174.333,349.729 173.687 C 351.565 171.358,352.949 167.846,353.750 163.481 C 354.311 160.425,354.610 149.558,354.146 149.090 C 353.777 148.717,329.243 148.829,328.790 149.205 C 328.460 149.479,328.386 150.418,328.316 155.226 L 328.234 160.922 327.251 161.929 L 326.267 162.935 319.371 162.935 L 312.474 162.935 311.745 162.051 C 310.505 160.546,310.448 160.010,310.448 149.799 L 310.448 140.327 311.001 139.939 C 311.491 139.596,313.969 139.552,332.758 139.552 L 353.963 139.552 354.243 139.028 C 354.821 137.948,354.402 104.820,353.772 101.866 C 351.412 90.788,345.993 85.598,335.199 84.077 C 330.359 83.395,308.376 83.393,303.607 84.074 M240.846 85.622 C 240.529 85.938,240.384 178.637,240.698 179.457 C 240.958 180.133,265.798 180.047,266.160 179.370 C 266.694 178.373,266.500 86.221,265.963 85.735 C 265.375 85.203,241.373 85.095,240.846 85.622 M326.412 101.935 C 328.282 103.168,328.225 102.846,328.310 112.732 C 328.363 118.824,328.301 121.781,328.115 122.129 C 327.742 122.825,311.528 122.935,310.839 122.246 C 310.499 121.906,310.448 120.758,310.448 113.436 C 310.448 104.005,310.529 103.492,312.226 102.155 L 313.060 101.498 319.403 101.497 C 325.049 101.496,325.819 101.544,326.412 101.935 " stroke="none" fill="#e1f21c" fill-rule="evenodd"></path><path id="path1" d="M47.430 195.191 C 46.984 195.637,47.258 200.228,47.746 200.489 C 48.337 200.806,353.829 200.731,354.146 200.415 C 354.480 200.081,354.560 196.141,354.244 195.551 L 353.963 195.025 200.779 195.025 C 116.528 195.025,47.521 195.100,47.430 195.191 " stroke="none" fill="#d8deca" fill-rule="evenodd"></path><path id="path2" d="M0.000 124.378 L 0.000 248.756 200.000 248.756 L 400.000 248.756 400.000 124.378 L 400.000 0.000 200.000 0.000 L 0.000 0.000 0.000 124.378 M256.841 49.846 C 262.885 51.164,267.425 57.091,267.439 63.682 C 267.468 76.936,250.503 82.750,242.253 72.313 C 233.884 61.726,243.490 46.933,256.841 49.846 M101.617 53.199 C 113.256 54.691,119.670 61.938,120.644 74.698 C 121.029 79.756,120.985 179.164,120.597 179.552 C 120.372 179.777,117.074 179.851,107.282 179.851 L 94.266 179.851 94.024 179.213 C 93.873 178.817,93.781 170.932,93.781 158.472 C 93.781 141.774,93.723 138.322,93.441 138.087 C 93.197 137.885,90.459 137.823,83.802 137.870 L 74.502 137.935 74.372 158.831 C 74.300 170.323,74.216 179.755,74.185 179.791 C 74.154 179.826,68.113 179.826,60.759 179.791 L 47.388 179.726 47.388 126.244 C 47.388 75.848,47.414 72.646,47.831 70.771 C 50.251 59.913,56.462 54.236,67.040 53.217 C 68.682 53.058,70.077 52.880,70.141 52.820 C 70.403 52.575,99.479 52.925,101.617 53.199 M225.015 53.089 C 225.586 53.507,225.915 69.136,225.374 70.147 C 225.125 70.612,224.857 70.647,221.519 70.647 C 211.389 70.647,209.716 72.060,209.296 80.972 C 209.078 85.605,208.256 85.170,217.506 85.323 L 224.986 85.448 225.300 86.070 C 225.759 86.978,225.761 104.301,225.302 104.682 C 225.095 104.854,222.277 104.974,217.332 105.024 C 210.860 105.088,209.647 105.157,209.447 105.473 C 209.302 105.703,209.209 119.883,209.204 142.537 C 209.200 162.718,209.107 179.370,208.997 179.542 C 208.841 179.789,206.127 179.842,196.264 179.791 L 183.729 179.726 183.556 179.104 C 183.289 178.145,183.317 80.055,183.586 75.498 C 183.722 73.184,183.974 71.101,184.188 70.522 C 184.390 69.975,184.560 69.178,184.566 68.751 C 184.576 68.050,184.893 67.146,185.966 64.763 C 186.160 64.332,186.318 63.868,186.318 63.732 C 186.318 63.595,187.099 62.425,188.053 61.130 C 191.567 56.363,196.318 53.922,203.629 53.128 C 208.037 52.649,224.372 52.619,225.015 53.089 M165.622 55.025 C 166.057 55.460,166.057 179.118,165.622 179.552 C 165.034 180.140,140.625 179.964,140.307 179.370 C 140.132 179.042,140.050 159.275,140.050 117.289 C 140.050 75.302,140.132 55.535,140.307 55.208 C 140.625 54.613,165.034 54.437,165.622 55.025 M76.953 71.416 C 76.084 71.668,74.708 73.088,74.500 73.947 C 74.426 74.253,74.396 84.017,74.434 95.647 L 74.502 116.791 83.802 116.856 C 90.459 116.903,93.197 116.841,93.441 116.639 C 93.897 116.261,93.950 75.374,93.497 73.860 C 93.161 72.738,92.244 71.819,91.070 71.427 C 90.046 71.085,78.128 71.076,76.953 71.416 M335.199 84.077 C 345.993 85.598,351.412 90.788,353.772 101.866 C 354.402 104.820,354.821 137.948,354.243 139.028 L 353.963 139.552 332.758 139.552 C 313.969 139.552,311.491 139.596,311.001 139.939 L 310.448 140.327 310.448 149.799 C 310.448 160.010,310.505 160.546,311.745 162.051 L 312.474 162.935 319.371 162.935 L 326.267 162.935 327.251 161.929 L 328.234 160.922 328.316 155.226 C 328.386 150.418,328.460 149.479,328.790 149.205 C 329.243 148.829,353.777 148.717,354.146 149.090 C 354.610 149.558,354.311 160.425,353.750 163.481 C 352.949 167.846,351.565 171.358,349.729 173.687 C 349.219 174.333,348.764 174.956,348.717 175.072 C 347.889 177.107,341.866 180.143,336.443 181.257 C 333.112 181.941,305.750 181.956,302.488 181.275 C 292.270 179.144,287.844 174.747,285.276 164.179 L 284.701 161.816 284.701 132.711 L 284.701 103.607 285.275 101.244 C 286.833 94.830,288.762 91.403,292.471 88.458 C 297.809 84.222,300.896 83.662,319.154 83.617 C 330.422 83.589,332.075 83.636,335.199 84.077 M265.963 85.735 C 266.500 86.221,266.694 178.373,266.160 179.370 C 265.798 180.047,240.958 180.133,240.698 179.457 C 240.384 178.637,240.529 85.938,240.846 85.622 C 241.373 85.095,265.375 85.203,265.963 85.735 M312.226 102.155 C 310.529 103.492,310.448 104.005,310.448 113.436 C 310.448 120.758,310.499 121.906,310.839 122.246 C 311.528 122.935,327.742 122.825,328.115 122.129 C 328.301 121.781,328.363 118.824,328.310 112.732 C 328.207 100.719,328.822 101.495,319.403 101.497 L 313.060 101.498 312.226 102.155 M354.244 195.551 C 354.560 196.141,354.480 200.081,354.146 200.415 C 353.829 200.731,48.337 200.806,47.746 200.489 C 47.258 200.228,46.984 195.637,47.430 195.191 C 47.521 195.100,116.528 195.025,200.779 195.025 L 353.963 195.025 354.244 195.551 " stroke="none" fill="#444444" fill-rule="evenodd"></path></g></svg>