<svg id="svg" version="1.1" xmlns="http://www.w3.org/2000/svg" xmlns:xlink="http://www.w3.org/1999/xlink" width="400" height="248.64864864864865" viewBox="0, 0, 400,248.64864864864865"><g id="svgg"><path id="path0" d="M0.000 124.324 L 0.000 248.649 200.000 248.649 L 400.000 248.649 400.000 124.324 L 400.000 0.000 200.000 0.000 L 0.000 0.000 0.000 124.324 M260.558 51.276 C 265.852 54.378,268.760 61.321,267.196 67.127 C 264.070 78.738,248.598 81.504,241.617 71.700 C 232.887 59.440,247.536 43.644,260.558 51.276 M103.140 53.333 C 112.889 55.086,118.902 61.674,120.435 72.282 C 120.884 75.386,121.211 98.946,121.220 128.782 L 121.236 179.958 107.529 179.748 L 93.822 179.537 93.436 158.687 L 93.050 137.838 83.784 137.838 L 74.517 137.838 74.312 158.880 L 74.106 179.923 60.605 179.923 L 47.104 179.923 47.104 126.679 C 47.104 62.775,47.166 62.347,57.237 56.150 C 62.815 52.718,90.325 51.030,103.140 53.333 M225.314 61.583 L 225.097 70.656 219.305 71.089 C 210.460 71.751,210.257 71.937,209.495 80.106 L 209.043 84.942 217.263 84.942 L 225.483 84.942 225.483 94.981 L 225.483 105.019 217.375 105.019 L 209.266 105.019 209.266 142.490 L 209.266 179.960 196.332 179.748 L 183.398 179.537 183.179 129.730 C 182.938 74.976,183.244 69.293,186.771 63.017 C 191.267 55.017,197.560 52.680,214.889 52.574 L 225.532 52.510 225.314 61.583 M165.835 117.181 L 166.032 179.923 152.900 179.923 L 139.768 179.923 139.768 117.503 C 139.768 83.172,140.008 54.844,140.302 54.550 C 140.595 54.257,146.415 54.112,153.236 54.229 L 165.637 54.440 165.835 117.181 M75.676 72.587 C 74.206 74.056,74.131 75.161,74.131 95.367 L 74.131 116.602 83.784 116.602 L 93.436 116.602 93.436 94.575 L 93.436 72.549 91.456 71.796 C 87.633 70.342,77.408 70.855,75.676 72.587 M340.635 84.830 C 351.464 88.325,353.981 94.778,354.301 119.872 L 354.555 139.744 332.683 139.949 L 310.811 140.154 310.593 149.712 C 310.297 162.702,310.457 162.934,319.663 162.934 C 327.815 162.934,327.670 163.072,328.185 154.826 L 328.571 148.649 341.313 148.649 L 354.054 148.649 354.010 157.143 C 353.905 177.046,347.363 181.744,319.691 181.785 C 296.282 181.820,289.608 178.927,285.983 167.174 C 283.833 160.205,283.818 104.506,285.964 98.136 C 288.514 90.569,293.827 85.730,301.272 84.196 C 306.031 83.215,337.187 83.716,340.635 84.830 M266.409 132.432 L 266.409 179.923 253.282 179.923 L 240.154 179.923 240.154 132.947 C 240.154 107.111,240.386 85.740,240.669 85.457 C 240.952 85.174,246.860 84.942,253.797 84.942 L 266.409 84.942 266.409 132.432 M311.969 102.703 C 310.604 104.068,310.425 105.277,310.425 113.127 L 310.425 122.008 319.305 122.008 L 328.185 122.008 328.185 112.785 C 328.185 101.535,327.892 101.158,319.133 101.158 C 314.543 101.158,313.231 101.441,311.969 102.703 M354.440 197.683 L 354.440 200.772 200.772 200.772 L 47.104 200.772 47.104 197.683 L 47.104 194.595 200.772 194.595 L 354.440 194.595 354.440 197.683 " stroke="none" fill="#000000" fill-rule="evenodd"></path></g></svg>